<?xml version="1.0" encoding="UTF-8"?>
<svg id="Default" xmlns="http://www.w3.org/2000/svg" version="1.1" viewBox="0 0 612 792">
  <!-- Generator: Adobe Illustrator 29.2.1, SVG Export Plug-In . SVG Version: 2.1.0 Build 116)  -->
  <polygon points="383.09 405.16 383.78 405.25 384.46 405.37 385.14 405.52 385.8 405.7 386.46 405.92 387.11 406.17 387.74 406.45 388.36 406.76 388.96 407.1 389.55 407.47 390.12 407.87 390.66 408.3 391.19 408.75 391.69 409.23 414.15 431.69 410.41 435.44 408.97 436.81 407.46 438.11 405.89 439.34 404.26 440.49 402.57 441.55 400.84 442.53 399.06 443.43 397.24 444.24 395.38 444.95 393.49 445.58 391.57 446.11 389.62 446.55 387.66 446.89 385.68 447.13 383.7 447.28 381.7 447.33 379.71 447.28 377.73 447.13 375.75 446.89 373.79 446.55 371.84 446.11 369.92 445.58 368.03 444.95 366.17 444.24 364.35 443.43 362.57 442.53 360.84 441.55 359.15 440.49 357.52 439.34 355.95 438.11 354.44 436.81 353 435.44 349.26 431.69 371.72 409.23 372.22 408.75 372.75 408.3 373.29 407.87 373.86 407.47 374.45 407.1 375.05 406.76 375.67 406.45 376.3 406.17 376.95 405.92 377.61 405.7 378.27 405.52 378.95 405.37 379.63 405.25 380.32 405.16 381.01 405.11 381.7 405.09 382.4 405.11 383.09 405.16"/>
  <polygon points="260.65 367.69 264.39 371.43 241.93 393.9 241.43 394.38 240.9 394.83 240.36 395.26 239.79 395.65 239.2 396.03 238.6 396.37 237.98 396.68 237.35 396.96 236.7 397.21 236.04 397.43 235.38 397.61 234.7 397.76 234.02 397.88 233.33 397.97 232.64 398.02 231.95 398.03 231.25 398.02 230.56 397.97 229.87 397.88 229.19 397.76 228.51 397.61 227.85 397.43 227.19 397.21 226.54 396.96 225.91 396.68 225.29 396.37 224.69 396.03 224.1 395.65 223.53 395.26 222.99 394.83 222.46 394.38 221.96 393.9 199.5 371.43 203.24 367.69 204.68 366.32 206.19 365.02 207.76 363.79 209.39 362.64 211.08 361.58 212.81 360.59 214.59 359.7 216.41 358.89 218.27 358.17 220.16 357.55 222.08 357.02 224.03 356.58 225.99 356.24 227.97 356 229.95 355.85 231.95 355.8 233.94 355.85 235.92 356 237.9 356.24 239.86 356.58 241.81 357.02 243.73 357.55 245.62 358.17 247.48 358.89 249.3 359.7 251.08 360.59 252.81 361.58 254.5 362.64 256.13 363.79 257.7 365.02 259.21 366.32 260.65 367.69"/>
  <polygon points="339.27 371.43 316.81 393.9 316.31 394.38 315.78 394.83 315.24 395.26 314.67 395.65 314.08 396.03 313.48 396.37 312.86 396.68 312.23 396.96 311.58 397.21 310.92 397.43 310.26 397.61 309.58 397.76 308.9 397.88 308.21 397.97 307.52 398.02 306.82 398.03 305.79 398.06 304.75 398.14 303.72 398.26 302.69 398.44 301.68 398.67 300.68 398.95 299.69 399.27 298.72 399.65 297.77 400.07 296.84 400.54 295.94 401.05 295.06 401.6 294.21 402.2 293.39 402.84 292.6 403.52 291.85 404.24 260.65 435.44 259.21 436.81 257.7 438.11 256.13 439.34 254.5 440.49 252.81 441.55 251.08 442.53 249.3 443.43 247.48 444.24 245.62 444.95 243.73 445.58 241.81 446.11 239.86 446.55 237.9 446.89 235.92 447.13 233.94 447.28 231.95 447.33 229.95 447.28 227.97 447.13 225.99 446.89 224.03 446.55 222.08 446.11 220.16 445.58 218.27 444.95 216.41 444.24 214.59 443.43 212.81 442.53 211.08 441.55 209.39 440.49 207.76 439.34 206.19 438.11 204.68 436.81 203.24 435.44 172.04 404.24 171.29 403.52 170.5 402.84 169.68 402.2 168.83 401.6 167.95 401.05 167.05 400.54 166.12 400.07 165.17 399.65 164.2 399.27 163.21 398.95 162.21 398.67 161.2 398.44 160.17 398.26 159.14 398.14 158.1 398.06 157.07 398.03 156.03 398.06 154.99 398.14 153.96 398.26 152.93 398.44 151.92 398.67 150.92 398.95 149.93 399.27 148.96 399.65 148.01 400.07 147.08 400.54 146.18 401.05 145.3 401.6 144.45 402.2 143.63 402.84 142.84 403.52 142.09 404.24 110.89 435.44 109.45 436.81 107.94 438.11 106.37 439.34 104.74 440.49 103.05 441.55 101.32 442.53 99.54 443.43 97.72 444.24 95.86 444.95 93.97 445.58 92.05 446.11 90.1 446.55 88.14 446.89 86.16 447.13 84.18 447.28 82.19 447.33 72.48 447.33 71.44 447.3 70.41 447.23 69.38 447.1 68.36 446.92 67.35 446.69 66.35 446.42 65.36 446.09 64.4 445.72 63.45 445.3 62.52 444.83 61.62 444.32 60.75 443.77 59.9 443.17 59.08 442.53 58.3 441.86 57.55 441.14 56.83 440.39 56.15 439.61 55.52 438.79 54.92 437.94 54.37 437.07 53.86 436.16 53.39 435.24 52.97 434.29 52.6 433.32 52.27 432.34 51.99 431.34 51.77 430.33 51.59 429.31 51.46 428.28 51.39 427.25 51.36 426.21 51.39 425.17 51.46 424.14 51.59 423.11 51.77 422.09 51.99 421.08 52.27 420.08 52.6 419.1 52.97 418.13 53.39 417.18 53.86 416.26 54.37 415.35 54.92 414.48 55.52 413.63 56.15 412.81 56.83 412.03 57.55 411.28 58.3 410.56 59.08 409.89 59.9 409.25 60.75 408.65 61.62 408.1 62.52 407.59 63.45 407.12 64.4 406.7 65.36 406.33 66.35 406 67.35 405.73 68.36 405.5 69.38 405.32 70.41 405.2 71.44 405.12 72.48 405.09 82.19 405.09 83.22 405.07 84.26 404.99 85.29 404.86 86.32 404.69 87.33 404.46 88.33 404.18 89.32 403.86 90.29 403.48 91.24 403.06 92.17 402.59 93.07 402.08 93.95 401.52 94.8 400.93 95.62 400.29 96.41 399.61 97.16 398.89 128.36 367.69 129.8 366.32 131.31 365.02 132.88 363.79 134.51 362.64 136.2 361.58 137.93 360.59 139.71 359.7 141.53 358.89 143.39 358.17 145.28 357.55 147.2 357.02 149.15 356.58 151.11 356.24 153.09 356 155.07 355.85 157.07 355.8 159.06 355.85 161.04 356 163.02 356.24 164.98 356.58 166.93 357.02 168.85 357.55 170.74 358.17 172.6 358.89 174.42 359.7 176.2 360.59 177.93 361.58 179.62 362.64 181.25 363.79 182.82 365.02 184.33 366.32 185.77 367.69 216.97 398.89 217.72 399.61 218.51 400.29 219.33 400.93 220.18 401.52 221.06 402.08 221.96 402.59 222.89 403.06 223.84 403.48 224.81 403.86 225.8 404.18 226.8 404.46 227.81 404.69 228.84 404.86 229.87 404.99 230.91 405.07 231.95 405.09 232.98 405.07 234.02 404.99 235.05 404.86 236.08 404.69 237.09 404.46 238.09 404.18 239.08 403.86 240.05 403.48 241 403.06 241.93 402.59 242.83 402.08 243.71 401.52 244.56 400.93 245.38 400.29 246.17 399.61 246.92 398.89 278.12 367.69 279.56 366.32 281.07 365.02 282.64 363.79 284.27 362.64 285.96 361.58 287.69 360.59 289.47 359.7 291.29 358.89 293.15 358.17 295.04 357.55 296.96 357.02 298.91 356.58 300.87 356.24 302.85 356 304.83 355.85 306.82 355.8 308.82 355.85 310.8 356 312.78 356.24 314.74 356.58 316.69 357.02 318.61 357.55 320.5 358.17 322.36 358.89 324.18 359.7 325.96 360.59 327.69 361.58 329.38 362.64 331.01 363.79 332.58 365.02 334.09 366.32 335.53 367.69 339.27 371.43"/>
  <polygon points="565.09 375.88 565.12 376.92 565.09 377.95 565.02 378.99 564.89 380.02 564.71 381.04 564.48 382.05 564.21 383.05 563.88 384.03 563.51 385 563.09 385.95 562.62 386.87 562.11 387.77 561.56 388.65 560.96 389.5 560.32 390.31 559.65 391.1 558.93 391.85 558.18 392.56 557.4 393.24 556.58 393.88 555.73 394.48 554.86 395.03 553.95 395.54 553.03 396.01 552.08 396.43 551.11 396.8 550.13 397.13 549.13 397.4 548.12 397.63 547.1 397.81 546.07 397.93 545.04 398.01 544 398.03 531.46 398.03 530.43 398.06 529.39 398.14 528.36 398.26 527.33 398.44 526.32 398.67 525.32 398.95 524.33 399.27 523.36 399.65 522.41 400.07 521.48 400.54 520.58 401.05 519.7 401.6 518.85 402.2 518.03 402.84 517.24 403.52 516.49 404.24 485.29 435.44 483.85 436.81 482.34 438.11 480.77 439.34 479.14 440.49 477.45 441.55 475.72 442.53 473.94 443.43 472.12 444.24 470.26 444.95 468.37 445.58 466.45 446.11 464.5 446.55 462.54 446.89 460.56 447.13 458.58 447.28 456.58 447.33 454.59 447.28 452.61 447.13 450.63 446.89 448.67 446.55 446.72 446.11 444.8 445.58 442.91 444.95 441.05 444.24 439.23 443.43 437.45 442.53 435.72 441.55 434.03 440.49 432.4 439.34 430.83 438.11 429.32 436.81 427.88 435.44 396.68 404.24 395.93 403.52 395.14 402.84 394.32 402.2 393.47 401.6 392.59 401.05 391.69 400.54 390.76 400.07 389.81 399.65 388.84 399.27 387.85 398.95 386.85 398.67 385.84 398.44 384.81 398.26 383.78 398.14 382.74 398.06 381.7 398.03 380.67 398.06 379.63 398.14 378.6 398.26 377.57 398.44 376.56 398.67 375.56 398.95 374.57 399.27 373.6 399.65 372.65 400.07 371.72 400.54 370.82 401.05 369.94 401.6 369.09 402.2 368.27 402.84 367.48 403.52 366.73 404.24 335.53 435.44 334.09 436.81 332.58 438.11 331.01 439.34 329.38 440.49 327.69 441.55 325.96 442.53 324.18 443.43 322.36 444.24 320.5 444.95 318.61 445.58 316.69 446.11 314.74 446.55 312.78 446.89 310.8 447.13 308.82 447.28 306.82 447.33 304.83 447.28 302.85 447.13 300.87 446.89 298.91 446.55 296.96 446.11 295.04 445.58 293.15 444.95 291.29 444.24 289.47 443.43 287.69 442.53 285.96 441.55 284.27 440.49 282.64 439.34 281.07 438.11 279.56 436.81 278.12 435.44 274.38 431.69 296.84 409.23 297.34 408.75 297.87 408.3 298.41 407.87 298.98 407.47 299.57 407.1 300.17 406.76 300.79 406.45 301.42 406.17 302.07 405.92 302.73 405.7 303.39 405.52 304.07 405.37 304.75 405.25 305.44 405.16 306.13 405.11 306.82 405.09 307.86 405.07 308.9 404.99 309.93 404.86 310.96 404.69 311.97 404.46 312.97 404.18 313.96 403.86 314.93 403.48 315.88 403.06 316.81 402.59 317.71 402.08 318.53 401.56 318.59 401.52 319.44 400.93 320.26 400.29 321.05 399.61 321.8 398.89 353 367.69 354.44 366.32 355.95 365.02 357.52 363.79 359.15 362.64 360.84 361.58 362.57 360.59 364.35 359.7 366.17 358.89 368.03 358.17 369.92 357.55 371.84 357.02 373.79 356.58 375.75 356.24 377.73 356 379.71 355.85 381.7 355.8 383.7 355.85 385.68 356 387.66 356.24 389.62 356.58 391.57 357.02 393.49 357.55 395.38 358.17 397.24 358.89 399.06 359.7 400.84 360.59 402.57 361.58 404.26 362.64 405.89 363.79 407.46 365.02 408.97 366.32 410.41 367.69 441.61 398.89 442.36 399.61 443.15 400.29 443.97 400.93 444.82 401.52 445.7 402.08 446.6 402.59 447.53 403.06 448.48 403.48 449.45 403.86 450.44 404.18 451.44 404.46 452.45 404.69 453.48 404.86 454.51 404.99 455.55 405.07 456.58 405.09 457.62 405.07 458.66 404.99 459.69 404.86 460.72 404.69 461.73 404.46 462.73 404.18 463.72 403.86 464.69 403.48 465.64 403.06 466.57 402.59 467.47 402.08 468.35 401.52 469.2 400.93 470.02 400.29 470.81 399.61 471.56 398.89 502.76 367.69 504.2 366.32 505.71 365.02 507.28 363.79 508.91 362.64 510.6 361.58 512.33 360.59 514.11 359.7 515.93 358.89 517.79 358.17 519.68 357.55 521.6 357.02 523.55 356.58 525.51 356.24 527.49 356 529.47 355.85 531.46 355.8 544 355.8 545.04 355.83 546.07 355.9 547.1 356.03 548.12 356.21 549.13 356.43 550.13 356.71 551.11 357.04 552.08 357.41 553.03 357.83 553.95 358.29 554.86 358.81 555.73 359.36 556.58 359.96 557.4 360.59 558.18 361.27 558.93 361.99 559.65 362.74 560.32 363.52 560.96 364.34 561.56 365.19 562.11 366.06 562.62 366.96 563.09 367.89 563.51 368.84 563.88 369.8 564.21 370.79 564.48 371.79 564.71 372.8 564.89 373.82 565.02 374.85 565.09 375.88"/>
</svg>